# xmcd
#
# Track frame offsets: 
#        150
#        20302
#        36577
#        51453
#        67852
#        76676
#        87205
#        106083
#        121459
#        135646
#
# Disc length: 1996 seconds
#
# Revision: 0
# Processed by: cddbd v1.5PL3 Copyright (c) Steve Scherf et al.
# Submitted via: ExactAudioCopy v0.95a3
#
DISCID=7a07ca0a
DTITLE=Jackson Taylor Band - Gypsies and Drifters
DYEAR=2002
DGENRE=Country
TTITLE0=Guitars, Jim Bean and Waylon
TTITLE1=Drinking Song
TTITLE2=Going Back To California
TTITLE3=Mama She's Pretty
TTITLE4=Drinking All Night Long
TTITLE5=Black Rose
TTITLE6=Paint The World
TTITLE7=She's a Real Good Girl
TTITLE8=High On You
TTITLE9=Gypsies and Drifters
EXTD=
EXTT0=
EXTT1=
EXTT2=
EXTT3=
EXTT4=
EXTT5=
EXTT6=
EXTT7=
EXTT8=
EXTT9=
PLAYORDER=
